<?xml version="1.0" encoding="utf-8"?>
<!-- Generator: Adobe Illustrator 21.1.0, SVG Export Plug-In . SVG Version: 6.00 Build 0)  -->
<svg version="1.1" id="Calque_1" xmlns="http://www.w3.org/2000/svg" xmlns:xlink="http://www.w3.org/1999/xlink" x="0px" y="0px"
	 viewBox="0 0 159.1 182" style="enable-background:new 0 0 159.1 182;" xml:space="preserve">
<style type="text/css">
	.st0{fill:url(#SVGID_1_);}
	.st1{fill:url(#SVGID_2_);}
	.st2{fill:#F6F6F6;}
	.st3{fill:#EDEDED;}
	.st4{fill:url(#_Rectangle_2_1_);}
	.st5{fill:none;}
	.st6{fill:#FBF7C8;}
	.st7{fill:#FBFAE2;}
</style>
<title>nightday</title>
<g id="Calque_2">
	<g>
		
			<linearGradient id="SVGID_1_" gradientUnits="userSpaceOnUse" x1="8.3804" y1="129.8516" x2="139.3462" y2="141.886" gradientTransform="matrix(1 0 0 -1 0 181.89)">
			<stop  offset="0" style="stop-color:#B5CBEB;stop-opacity:0"/>
			<stop  offset="1" style="stop-color:#36A9E1"/>
		</linearGradient>
		<rect y="0" class="st0" width="159.1" height="91"/>
	</g>
	
		<linearGradient id="SVGID_2_" gradientUnits="userSpaceOnUse" x1="104.124" y1="137.5908" x2="143.6021" y2="141.2154" gradientTransform="matrix(1 0 0 -1 0 181.89)">
		<stop  offset="0" style="stop-color:#FCEA10"/>
		<stop  offset="1" style="stop-color:#F9B233"/>
	</linearGradient>
	<ellipse class="st1" cx="125.6" cy="42.3" rx="25.1" ry="24.3"/>
	<path class="st2" d="M106.1,64.4c0-4.6-5.3-8.3-11.9-8.3c-1.2,0-2.3,0.1-3.5,0.4c0-0.1,0-0.2,0-0.4c0-5.8-4.9-10.6-10.9-10.6
		c-4.9,0-9.1,3.1-10.5,7.6c-0.8-0.5-1.7-0.8-2.7-0.8c-3.3,0-6,3.2-6,7.2c0,0.1,0,0.2,0,0.4c-2.2,2.1-3.4,5-3.5,8.1
		c0,6.7,6.1,12.1,13.5,12.1c4.2,0,8.1-1.7,10.8-4.8c1.4,1.9,4.2,3.2,7.6,3.2c4.7,0,8.4-2.6,8.4-5.7c0-0.1,0-0.2,0-0.3
		C102.4,71.4,106.1,68.2,106.1,64.4z"/>
	<path class="st3" d="M82.4,61.7L82.4,61.7c0,0,0-0.1,0-0.1c0-2.5-3.9-4.5-8.6-4.5c-1.5,0-3,0.2-4.4,0.6c-1.4-1.6-3.5-2.5-5.7-2.5
		c-2,0-3.9,0.8-5.3,2.1c-1-0.7-2.1-1.1-3.4-1.1c-3.3,0-6,2.9-6.3,6.6c-3.8,1.6-6.3,4.8-6.3,8.5c0,4.2,3.3,7.7,7.9,9c0,0,0,0.1,0,0.1
		c0,1.9,4.7,3.5,10.5,3.5c5.4,0,9.8-1.3,10.4-3.1h0.1c6.1,0,11.1-3.4,11.1-7.7c0-0.4-0.1-0.9-0.2-1.3h0.2c6.2,0,11.1-2.3,11.1-5.1
		S88.5,61.7,82.4,61.7z"/>
</g>
<g id="Calque_2_-_copie">
	<g>
		
			<linearGradient id="_Rectangle_2_1_" gradientUnits="userSpaceOnUse" x1="19.6187" y1="44.4021" x2="111.1187" y2="45.9021" gradientTransform="matrix(1 0 0 -1 0 181.89)">
			<stop  offset="0" style="stop-color:#B5CBEB;stop-opacity:0"/>
			<stop  offset="1" style="stop-color:#072B4F"/>
		</linearGradient>
		<rect id="_Rectangle_2" x="1" y="91" class="st4" width="157.8" height="91"/>
	</g>
	<g>
		<rect x="158.8" y="118.2" class="st5" width="0.3" height="0.3"/>
		<circle class="st6" cx="158.9" cy="118.4" r="0.1"/>
		<rect x="150.4" y="123.9" class="st5" width="2.2" height="2.2"/>
		<circle class="st6" cx="151.5" cy="125" r="1.1"/>
		<rect x="138.9" y="128.5" class="st5" width="1.5" height="1.5"/>
		<circle class="st6" cx="139.6" cy="129.2" r="0.7"/>
		<rect x="135.6" y="118.7" class="st5" width="1.3" height="1.3"/>
		<circle class="st6" cx="136.2" cy="119.4" r="0.6"/>
		<rect x="124.7" y="124.1" class="st5" width="1.8" height="1.8"/>
		<circle class="st6" cx="125.6" cy="125" r="0.9"/>
		<rect x="121.9" y="120" class="st5" width="1.7" height="1.7"/>
		<circle class="st6" cx="122.8" cy="120.8" r="0.8"/>
		<rect x="112.5" y="132.4" class="st5" width="0.2" height="0.2"/>
		<circle class="st6" cx="112.7" cy="132.5" r="0.1"/>
		<rect x="119.3" y="122.3" class="st5" width="2.3" height="2.3"/>
		<circle class="st6" cx="120.4" cy="123.4" r="1.1"/>
		<rect x="137.5" y="164.3" class="st5" width="1.8" height="1.8"/>
		<circle class="st6" cx="138.4" cy="165.2" r="0.9"/>
		<rect x="126.8" y="155.8" class="st5" width="2.1" height="2.1"/>
		<circle class="st6" cx="127.9" cy="156.8" r="1.1"/>
		<rect x="128.9" y="148.6" class="st5" width="1.6" height="1.6"/>
		<circle class="st6" cx="129.6" cy="149.3" r="0.8"/>
		<rect x="137.9" y="141.3" class="st5" width="0.7" height="0.7"/>
		<circle class="st6" cx="138.2" cy="141.7" r="0.3"/>
		<rect x="142.9" y="135.4" class="st5" width="1.1" height="1.1"/>
		<circle class="st6" cx="143.4" cy="135.9" r="0.6"/>
		<rect x="148.8" y="134.8" class="st5" width="1" height="1"/>
		<circle class="st6" cx="149.3" cy="135.4" r="0.5"/>
		<rect x="130.9" y="116.2" class="st5" width="2.4" height="2.4"/>
		<circle class="st6" cx="132.2" cy="117.4" r="1.2"/>
		<rect x="149.6" y="117.2" class="st5" width="1.1" height="1.1"/>
		<circle class="st6" cx="150.1" cy="117.8" r="0.6"/>
		<rect x="109.1" y="92" class="st5" width="0.8" height="0.8"/>
		<circle class="st6" cx="109.5" cy="92.4" r="0.4"/>
		<rect x="93.9" y="80" class="st5" width="2" height="2"/>
		<circle class="st6" cx="94.9" cy="81" r="1"/>
		<rect x="83.7" y="83.7" class="st5" width="0.7" height="0.7"/>
		<circle class="st6" cx="84" cy="84" r="0.3"/>
		<rect x="78.3" y="95" class="st5" width="2.1" height="2.1"/>
		<circle class="st6" cx="79.3" cy="96" r="1.1"/>
		<rect x="72.2" y="106.8" class="st5" width="1.4" height="1.4"/>
		<circle class="st6" cx="72.9" cy="107.5" r="0.7"/>
		<rect x="60.9" y="95.3" class="st5" width="1.8" height="1.8"/>
		<circle class="st6" cx="61.8" cy="96.2" r="0.9"/>
		<rect x="58.7" y="97.3" class="st5" width="1.4" height="1.4"/>
		<circle class="st6" cx="59.4" cy="97.9" r="0.7"/>
		<rect x="58.1" y="120.4" class="st5" width="0.3" height="0.3"/>
		<circle class="st6" cx="58.3" cy="120.5" r="0.1"/>
		<rect x="49.4" y="99.7" class="st5" width="1.8" height="1.8"/>
		<circle class="st6" cx="50.3" cy="100.6" r="0.9"/>
		<rect x="45.1" y="118" class="st5" width="1.9" height="1.9"/>
		<circle class="st6" cx="46.1" cy="119" r="0.9"/>
		<rect x="37" y="113.3" class="st5" width="1.4" height="1.4"/>
		<circle class="st6" cx="37.7" cy="113.9" r="0.7"/>
		<rect x="58.3" y="140.9" class="st5" width="1.3" height="1.3"/>
		<circle class="st6" cx="59" cy="141.6" r="0.7"/>
		<rect x="66.4" y="132.7" class="st5" width="1.2" height="1.2"/>
		<circle class="st6" cx="67" cy="133.3" r="0.6"/>
		<rect x="74.4" y="141.9" class="st5" width="1.4" height="1.4"/>
		<circle class="st6" cx="75.1" cy="142.6" r="0.7"/>
		<rect x="73.7" y="138.4" class="st5" width="1.5" height="1.5"/>
		<circle class="st6" cx="74.4" cy="139.1" r="0.7"/>
		<rect x="69.8" y="128.4" class="st5" width="2" height="2"/>
		<circle class="st6" cx="70.8" cy="129.4" r="1"/>
		<rect x="67.4" y="118.5" class="st5" width="2.4" height="2.4"/>
		<circle class="st6" cx="68.6" cy="119.7" r="1.2"/>
		<rect x="75.4" y="134.3" class="st5" width="2" height="2"/>
		<circle class="st6" cx="76.4" cy="135.3" r="1"/>
		<rect x="71.8" y="116" class="st5" width="0.8" height="0.8"/>
		<circle class="st6" cx="72.2" cy="116.4" r="0.4"/>
		<rect x="85.5" y="119.2" class="st5" width="0.8" height="0.8"/>
		<circle class="st6" cx="85.8" cy="119.6" r="0.4"/>
		<rect x="88.9" y="107.9" class="st5" width="1.7" height="1.7"/>
		<circle class="st6" cx="89.7" cy="108.7" r="0.8"/>
		<rect x="102.2" y="108.3" class="st5" width="1.7" height="1.7"/>
		<circle class="st6" cx="103" cy="109.2" r="0.8"/>
	</g>
	<path class="st7" d="M116.7,101.1c-5.3,1.1-10.1,3.9-13.6,8.1c9.3-7.4,22.8-5.8,30.2,3.5s5.8,22.8-3.5,30.2
		c-5.3,4.2-12.3,5.7-18.8,3.9c12.1,5.9,26.6,0.9,32.5-11.2c5.9-12.1,0.9-26.6-11.2-32.5C127.4,100.7,121.9,100,116.7,101.1
		L116.7,101.1z"/>
</g>
</svg>
